<svg width="454" height="454" viewBox="0 0 454 454" fill="none" xmlns="http://www.w3.org/2000/svg">
<path d="M432.134 264.734C420.068 267.787 407.695 269.331 395.358 269.331C327.856 269.331 268.365 223.785 250.681 158.568C236.917 107.738 250.311 54.515 286.527 16.1759L301.809 0.000396729L279.573 0.948712C266.044 1.5177 252.623 3.59496 239.671 7.10825C204.087 16.754 173.063 36.6505 149.211 64.6936C138.238 52.5461 122.721 45.4653 106.013 45.4653C81.0317 45.4653 58.9043 61.5777 50.8481 84.6985H49.8727C22.5251 84.6985 0.271332 106.952 0.271332 134.309C0.271332 161.666 22.5251 183.919 49.8727 183.919H105.498C105.607 199.589 107.594 215.151 111.703 230.278C113.301 236.194 115.514 242.345 118.115 248.865C96.4215 265.881 82.4045 292.253 82.4045 321.886C82.4045 325.164 82.6032 328.524 83.0186 332.064C67.7191 345.287 59.0488 364.108 59.0488 384.493C59.0488 422.814 90.2348 453.991 128.565 453.991H324.857C363.187 453.991 394.373 422.814 394.373 384.493C394.373 367.595 388.457 352.114 378.487 340.084C404.362 325.101 426.173 303.913 442.024 278.236L453.729 259.279L432.134 264.734ZM18.3345 134.318C18.3345 116.923 32.4779 102.771 49.8727 102.771H65.0277L66.527 95.5906C70.4196 77.0126 87.0286 63.5375 106.013 63.5375C118.63 63.5375 130.263 69.39 137.876 79.2886L132.656 86.5319H142.744H150.954C172.829 86.5319 190.63 104.333 190.63 126.217C190.63 146.754 175.231 163.716 154.711 165.685C153.7 165.802 152.643 165.847 151.586 165.856C151.37 165.856 151.189 165.865 150.954 165.865H105.95H49.8727C32.487 165.865 18.3345 151.713 18.3345 134.318V134.318ZM324.857 435.936H128.574C100.197 435.936 77.121 412.861 77.121 384.502C77.121 368.073 84.7617 353 98.0743 343.164L102.527 339.868L101.606 334.404C100.838 329.861 100.468 325.769 100.468 321.904C100.468 295.486 114.268 272.284 135.004 258.981C137.416 257.445 139.89 256.064 142.428 254.817C143.124 254.474 143.81 254.131 144.524 253.806C147.45 252.487 150.439 251.313 153.501 250.374C153.862 250.265 154.242 250.193 154.603 250.094C157.367 249.299 160.175 248.694 163.02 248.224C163.842 248.08 164.664 247.953 165.495 247.845C168.719 247.42 171.971 247.131 175.258 247.131C201.757 247.131 226.521 261.419 239.897 284.432L244.72 292.741L252.722 287.403C259.947 282.571 268.374 280.024 277.098 280.024C301.366 280.024 321.109 299.776 321.1 324.315V332.597L329.346 333.311C332.362 333.573 335.27 334.169 338.115 334.936C338.973 335.162 339.804 335.487 340.644 335.758C342.64 336.409 344.591 337.158 346.47 338.043C347.328 338.45 348.168 338.874 348.999 339.326C350.877 340.337 352.683 341.475 354.417 342.704C355.05 343.155 355.709 343.58 356.323 344.049C368.462 353.541 376.301 368.263 376.301 384.511C376.31 412.861 353.225 435.936 324.857 435.936V435.936ZM364.379 327.26C356.82 322.075 348.159 318.291 338.721 316.413C337.339 305.105 332.877 294.755 326.239 286.148C326.122 286.003 326.04 285.85 325.923 285.705C325.119 284.694 324.252 283.736 323.403 282.779C323.042 282.364 322.708 281.921 322.328 281.524C321.777 280.946 321.172 280.404 320.603 279.835C319.872 279.112 319.158 278.363 318.381 277.676C318.228 277.541 318.074 277.432 317.93 277.306C311.156 271.381 303.109 266.883 294.24 264.328C293.436 264.102 292.605 263.948 291.802 263.759C290.772 263.506 289.742 263.208 288.695 263.018C288.044 262.891 287.367 262.837 286.699 262.738C283.565 262.241 280.386 261.934 277.107 261.934C267.886 261.934 258.89 263.957 250.663 267.841C233.331 243.708 205.189 229.041 175.258 229.041C171.79 229.041 168.376 229.267 165.007 229.637C163.978 229.746 162.966 229.953 161.955 230.107C159.606 230.45 157.267 230.829 154.973 231.344C153.79 231.606 152.634 231.931 151.46 232.247C149.347 232.807 147.251 233.421 145.201 234.126C144.018 234.532 142.853 234.966 141.688 235.417C139.629 236.221 137.624 237.106 135.646 238.037C134.941 238.371 134.21 238.606 133.514 238.967C131.726 234.261 130.299 229.872 129.125 225.573C125.449 211.971 123.543 198 123.435 183.928H151.324C153.104 183.928 154.901 183.82 156.527 183.657C186.259 180.813 208.684 156.102 208.684 126.217C208.684 123.29 208.395 120.436 207.97 117.628C207.898 117.104 207.826 116.58 207.736 116.065C207.257 113.374 206.598 110.746 205.749 108.19C205.604 107.756 205.433 107.332 205.279 106.898C203.355 101.497 200.655 96.4757 197.304 91.9418C197.169 91.7612 197.042 91.5806 196.907 91.3999C189.618 81.7994 179.413 74.547 167.599 70.9795C188.39 48.5451 214.654 32.6134 244.377 24.5572C249.136 23.2567 253.977 22.191 258.863 21.342C229.42 62.1828 219.811 113.762 233.232 163.309C253.038 236.375 319.7 287.403 395.33 287.403C401.598 287.403 407.884 287.042 414.125 286.337C400.442 303.136 383.562 317.036 364.379 327.26V327.26Z" fill="white"/>
</svg>
